HIERARCHY
ROOT Hips
{
	OFFSET 0.000000 89.005402 0.000000
	CHANNELS 6 Xposition Yposition Zposition Xrotation Yrotation Zrotation
	JOINT Spine
	{
		OFFSET 0.116900 10.681000 0.373400
		CHANNELS 3 Xrotation Yrotation Zrotation
		JOINT Spine1
		{
			OFFSET 0.000000 13.840401 0.053500
			CHANNELS 3 Xrotation Yrotation Zrotation
			JOINT Spine2
			{
				OFFSET 0.000000 14.712700 -0.366200
				CHANNELS 3 Xrotation Yrotation Zrotation
				JOINT Neck
				{
					OFFSET 0.000000 35.415497 -3.314200
					CHANNELS 3 Xrotation Yrotation Zrotation
					JOINT Head
					{
						OFFSET 0.000000 16.899200 1.218300
						CHANNELS 3 Xrotation Yrotation Zrotation
						JOINT HeadTop_End
						{
							OFFSET 0.000000 22.206207 2.192500
							CHANNELS 3 Xrotation Yrotation Zrotation
							End Site
							{
								OFFSET 0.000000 22.314178 0.000000
							}
						}
					}
				}
				JOINT LeftShoulder
				{
					OFFSET 12.896400 26.716293 -4.548400
					CHANNELS 3 Xrotation Yrotation Zrotation
					JOINT LeftArm
					{
						OFFSET 19.027000 -4.857010 -1.718400
						CHANNELS 3 Xrotation Yrotation Zrotation
						JOINT LeftForeArm
						{
							OFFSET 24.179897 0.000000 0.000000
							CHANNELS 3 Xrotation Yrotation Zrotation
							JOINT LeftHand
							{
								OFFSET 27.156403 0.000000 0.000000
								CHANNELS 3 Xrotation Yrotation Zrotation
								JOINT LeftHandIndex1
								{
									OFFSET 16.441200 0.000000 0.000000
									CHANNELS 3 Xrotation Yrotation Zrotation
									JOINT LeftHandIndex2
									{
										OFFSET 4.821899 0.000000 0.000000
										CHANNELS 3 Xrotation Yrotation Zrotation
										JOINT LeftHandIndex3
										{
											OFFSET 6.386497 0.000000 0.000000
											CHANNELS 3 Xrotation Yrotation Zrotation
											JOINT LeftHandIndex4
											{
												OFFSET 5.188988 0.000000 0.000000
												CHANNELS 3 Xrotation Yrotation Zrotation
												End Site
												{
													OFFSET -0.178703 5.185913 0.000177
												}
											}
										}
									}
								}
								JOINT LeftHandThumb1
								{
									OFFSET 6.534897 -5.032593 5.900300
									CHANNELS 3 Xrotation Yrotation Zrotation
									JOINT LeftHandThumb2
									{
										OFFSET 3.818176 -2.204422 2.204423
										CHANNELS 3 Xrotation Yrotation Zrotation
										JOINT LeftHandThumb3
										{
											OFFSET 3.252098 -1.877594 1.877601
											CHANNELS 3 Xrotation Yrotation Zrotation
											JOINT LeftHandThumb4
											{
												OFFSET 5.251778 -3.032120 3.032117
												CHANNELS 3 Xrotation Yrotation Zrotation
												End Site
												{
													OFFSET 0.000023 6.780014 0.000000
												}
											}
										}
									}
								}
							}
						}
					}
				}
				JOINT RightShoulder
				{
					OFFSET -12.896300 26.716293 -4.548400
					CHANNELS 3 Xrotation Yrotation Zrotation
					JOINT RightArm
					{
						OFFSET -19.027000 -4.857010 -1.718400
						CHANNELS 3 Xrotation Yrotation Zrotation
						JOINT RightForeArm
						{
							OFFSET -24.179897 0.000000 0.000000
							CHANNELS 3 Xrotation Yrotation Zrotation
							JOINT RightHand
							{
								OFFSET -27.156403 0.000000 0.000000
								CHANNELS 3 Xrotation Yrotation Zrotation
								JOINT RightHandThumb1
								{
									OFFSET -6.591202 -4.852203 5.988100
									CHANNELS 3 Xrotation Yrotation Zrotation
									JOINT RightHandThumb2
									{
										OFFSET -3.818176 -2.204422 2.204423
										CHANNELS 3 Xrotation Yrotation Zrotation
										JOINT RightHandThumb3
										{
											OFFSET -3.252098 -1.877594 1.877601
											CHANNELS 3 Xrotation Yrotation Zrotation
											JOINT RightHandThumb4
											{
												OFFSET -5.251778 -3.032120 3.032117
												CHANNELS 3 Xrotation Yrotation Zrotation
												End Site
												{
													OFFSET -0.000023 6.780014 0.000000
												}
											}
										}
									}
								}
								JOINT RightHandIndex1
								{
									OFFSET -16.029404 0.000000 0.000000
									CHANNELS 3 Xrotation Yrotation Zrotation
									JOINT RightHandIndex2
									{
										OFFSET -5.213303 0.000000 0.000000
										CHANNELS 3 Xrotation Yrotation Zrotation
										JOINT RightHandIndex3
										{
											OFFSET -6.386528 0.000000 0.000000
											CHANNELS 3 Xrotation Yrotation Zrotation
											JOINT RightHandIndex4
											{
												OFFSET -5.189026 0.000000 0.000000
												CHANNELS 3 Xrotation Yrotation Zrotation
												End Site
												{
													OFFSET 0.236702 5.183624 0.001972
												}
											}
										}
									}
								}
							}
						}
					}
				}
			}
		}
	}
	JOINT LeftUpLeg
	{
		OFFSET 14.073000 -7.904099 -1.463000
		CHANNELS 3 Xrotation Yrotation Zrotation
		JOINT LeftLeg
		{
			OFFSET -0.109806 -34.073280 4.093200
			CHANNELS 3 Xrotation Yrotation Zrotation
			JOINT LeftFoot
			{
				OFFSET 0.109806 -29.899420 -6.319000
				CHANNELS 3 Xrotation Yrotation Zrotation
				JOINT LeftToeBase
				{
					OFFSET 1.551100 -14.988700 20.535801
					CHANNELS 3 Xrotation Yrotation Zrotation
					JOINT LeftToe_End
					{
						OFFSET 0.221200 0.570800 13.248301
						CHANNELS 3 Xrotation Yrotation Zrotation
						End Site
						{
							OFFSET 0.000000 13.262435 0.000000
						}
					}
				}
			}
		}
	}
	JOINT RightUpLeg
	{
		OFFSET -13.839300 -7.904099 -1.463000
		CHANNELS 3 Xrotation Yrotation Zrotation
		JOINT RightLeg
		{
			OFFSET 0.109694 -34.073219 4.093300
			CHANNELS 3 Xrotation Yrotation Zrotation
			JOINT RightFoot
			{
				OFFSET -0.109694 -29.899384 -6.319200
				CHANNELS 3 Xrotation Yrotation Zrotation
				JOINT RightToeBase
				{
					OFFSET -1.551100 -14.988700 20.535801
					CHANNELS 3 Xrotation Yrotation Zrotation
					JOINT RightToe_End
					{
						OFFSET -0.221200 0.570900 13.248299
						CHANNELS 3 Xrotation Yrotation Zrotation
						End Site
						{
							OFFSET 0.000000 13.262440 0.000000
						}
					}
				}
			}
		}
	}
}
MOTION
Frames: 9
Frame Time: 0.033333
19.703327 37.309151 16.409000 -38.679358 -32.869548 -18.667795 55.980353 3.018017 -1.973571 10.112925 0.250889 -5.201586 16.164374 -0.958246 -4.176353 -11.190052 7.011441 3.228803 -15.787053 19.111867 13.076569 -0.000001 -0.000000 0.000000 -37.338254 -7.721829 1.503259 -77.543377 -23.996953 -72.324313 0.000000 -27.697370 -0.000009 -121.455872 9.422378 13.931829 -1.882827 2.129406 -39.817008 2.947092 5.081736 -60.200529 0.514376 2.402400 -24.167390 -0.000002 0.000001 -0.000001 1.567995 0.456389 2.719341 19.473182 -1.474901 7.636913 -4.536181 -9.613114 1.492977 -0.000002 0.000005 -0.000001 -42.209927 -7.486796 -3.238476 -44.630341 44.379448 90.452584 0.000219 98.406879 -0.000198 -38.353636 -24.002601 -24.020449 8.377130 -4.904162 11.022010 21.620194 -18.183907 -18.379216 -0.702876 -49.821206 -32.535138 0.000002 -0.000001 -0.000000 -1.101404 1.407129 15.159508 1.422349 -3.352180 45.974078 0.615852 -2.316440 29.773112 -0.000000 -0.000000 -0.000000 -72.422381 -9.182213 23.828419 119.775263 -7.064761 -1.960332 -12.826235 -10.376333 -4.711166 0.923349 -0.000004 0.000005 0.000000 0.000001 -0.000000 21.106765 -0.309804 -55.684285 136.317995 62.948280 19.498614 -80.760778 11.180203 -8.768556 -36.935344 -0.000018 -0.000005 0.000000 -0.000000 -0.000000 
19.694946 37.256020 16.252647 -39.248961 -32.953163 -19.105050 56.481317 2.959723 -1.271764 10.221009 0.344424 -5.043426 16.426735 -0.780976 -4.236478 -10.995223 7.029732 3.046430 -15.716098 19.276768 12.579929 -0.000000 0.000000 -0.000001 -37.355975 -7.199492 1.582066 -77.708804 -23.453292 -72.325454 0.000018 -28.924758 0.000012 -121.929559 9.387466 14.451149 -1.882829 2.129403 -39.817008 2.947095 5.081736 -60.200529 0.514372 2.402400 -24.167388 -0.000001 -0.000001 0.000001 1.567995 0.456384 2.719341 19.473182 -1.474903 7.636915 -4.536180 -9.613107 1.492977 -0.000000 0.000000 0.000000 -42.139125 -7.952965 -4.054513 -46.715038 44.681069 91.848422 -0.000094 98.565046 0.000090 -38.388504 -24.453073 -24.647561 8.377130 -4.904161 11.022010 21.620195 -18.183905 -18.379213 -0.702876 -49.821206 -32.535142 -0.000002 0.000001 -0.000000 -1.101403 1.407129 15.159508 1.422350 -3.352179 45.974078 0.615851 -2.316440 29.773109 -0.000000 -0.000000 -0.000000 -72.169753 -8.974336 24.129943 119.732711 -8.229519 -1.835332 -12.619672 -9.176220 -4.260927 0.923353 0.000003 -0.000001 -0.000000 -0.000001 -0.000000 22.523558 0.088639 -55.763857 135.578230 63.257107 20.743768 -81.115429 11.816815 -8.305605 -37.236176 -0.000022 -0.000005 -0.000000 -0.000001 -0.000000 
19.705332 37.227783 16.137829 -39.792863 -33.060021 -19.608339 57.131466 2.957726 -0.459577 10.363203 0.458433 -4.882386 16.739882 -0.577843 -4.323617 -10.851796 7.053681 2.864318 -15.656588 19.557383 11.990010 -0.000002 -0.000001 0.000000 -37.403161 -6.542277 1.559516 -77.416444 -22.710717 -72.007611 0.000036 -31.670235 0.000027 -122.438927 8.896254 15.572208 -1.882827 2.129405 -39.817008 2.947096 5.081738 -60.200529 0.514376 2.402400 -24.167386 -0.000001 -0.000000 0.000002 1.567995 0.456387 2.719341 19.473184 -1.474904 7.636912 -4.536180 -9.613116 1.492977 -0.000000 -0.000001 -0.000001 -42.094299 -8.483576 -5.047126 -49.057656 44.992133 93.390194 0.000263 99.004015 -0.000319 -38.374817 -24.844204 -25.261139 8.377129 -4.904161 11.022009 21.620194 -18.183907 -18.379214 -0.702872 -49.821206 -32.535135 -0.000000 0.000002 0.000002 -1.101402 1.407129 15.159509 1.422349 -3.352180 45.974085 0.615852 -2.316440 29.773109 -0.000000 -0.000000 -0.000000 -71.977449 -8.618836 24.515987 119.769744 -9.469590 -1.636801 -12.497265 -7.873958 -3.638376 0.923342 0.000001 0.000001 0.000000 0.000001 0.000000 23.578284 0.593341 -55.673231 135.286568 63.057720 21.358661 -81.478358 12.195106 -7.555209 -37.386386 0.000001 -0.000007 0.000001 -0.000000 -0.000000 
19.726583 37.220329 16.050327 -40.289780 -33.166712 -20.122321 57.829709 2.987463 0.371173 10.516866 0.577842 -4.728133 17.063122 -0.372460 -4.420959 -10.746781 7.081365 2.693188 -15.607479 19.888251 11.389173 -0.000003 0.000000 0.000002 -37.465869 -5.840358 1.473683 -76.921686 -21.913615 -71.553847 0.000016 -35.080975 -0.000002 -122.923106 8.144737 16.924387 -1.882827 2.129402 -39.817008 2.947097 5.081736 -60.200529 0.514374 2.402399 -24.167381 -0.000005 -0.000003 0.000002 1.567995 0.456388 2.719341 19.473184 -1.474900 7.636911 -4.536181 -9.613109 1.492979 -0.000001 0.000002 0.000001 -42.086540 -9.019292 -6.085645 -51.347860 45.264924 94.877509 -0.000025 99.636942 0.000000 -38.323713 -25.164481 -25.807257 8.377129 -4.904161 11.022010 21.620195 -18.183907 -18.379216 -0.702874 -49.821206 -32.535138 -0.000000 -0.000001 0.000001 -1.101403 1.407129 15.159509 1.422351 -3.352180 45.974082 0.615851 -2.316439 29.773112 -0.000000 -0.000000 -0.000000 -71.829288 -8.209962 24.924632 119.849193 -10.682258 -1.412452 -12.430334 -6.589804 -2.954710 0.923358 0.000019 -0.000002 -0.000000 -0.000002 0.000000 24.332513 1.163396 -55.484748 135.323355 62.529637 21.521504 -81.807621 12.346213 -6.636784 -37.413457 -0.000034 -0.000032 0.000001 0.000001 0.000000 
19.744751 37.225853 15.987690 -40.674729 -33.251693 -20.540751 58.407693 3.020745 1.048419 10.644502 0.675957 -4.605623 17.328214 -0.205770 -4.502750 -10.674781 7.106627 2.558491 -15.569942 20.173852 10.900495 -0.000003 0.000000 0.000000 -37.520124 -5.255364 1.381903 -76.333211 -21.189270 -71.080426 -0.000015 -38.537102 -0.000005 -123.229972 7.238275 18.256882 -1.882827 2.129403 -39.817008 2.947096 5.081736 -60.200529 0.514378 2.402400 -24.167388 -0.000001 0.000000 -0.000001 1.567996 0.456387 2.719341 19.473180 -1.474899 7.636915 -4.536181 -9.613110 1.492978 -0.000001 0.000000 -0.000001 -42.107519 -9.455065 -6.946493 -52.994304 45.435040 95.920827 0.000072 100.430555 -0.000098 -38.223033 -25.348978 -26.143440 8.377131 -4.904162 11.022010 21.620194 -18.183908 -18.379216 -0.702878 -49.821206 -32.535142 -0.000001 -0.000001 -0.000001 -1.101402 1.407128 15.159508 1.422349 -3.352180 45.974082 0.615852 -2.316440 29.773112 -0.000000 -0.000000 0.000000 -71.717396 -7.863184 25.267443 119.927836 -11.658011 -1.222652 -12.403483 -5.557898 -2.383316 0.923346 -0.000010 0.000001 0.000000 0.000000 0.000000 24.825405 1.640284 -55.254642 135.496500 61.954966 21.463308 -82.099495 12.366616 -5.826485 -37.392267 -0.000006 -0.000004 0.000001 0.000000 0.000000 
19.748592 37.234291 15.954021 -40.893152 -33.301209 -20.783504 58.745330 3.042020 1.441801 10.719240 0.733103 -4.535289 17.485925 -0.107063 -4.551251 -10.635475 7.122895 2.479873 -15.547570 20.346722 10.610439 -0.000000 0.000000 0.000001 -37.550939 -4.905828 1.323444 -75.640056 -20.611020 -70.618371 0.000005 -41.802711 -0.000011 -123.239248 6.199829 19.493951 -1.882827 2.129409 -39.817008 2.947093 5.081737 -60.200536 0.514376 2.402400 -24.167385 -0.000002 0.000001 0.000001 1.567995 0.456385 2.719341 19.473180 -1.474899 7.636912 -4.536180 -9.613111 1.492975 -0.000002 -0.000001 -0.000001 -42.131827 -9.713728 -7.462732 -53.563303 45.476164 96.230522 0.000511 101.368115 -0.000555 -38.058190 -25.335016 -26.145001 8.377129 -4.904161 11.022009 21.620194 -18.183908 -18.379218 -0.702874 -49.821203 -32.535138 -0.000004 -0.000000 -0.000001 -1.101403 1.407129 15.159508 1.422350 -3.352179 45.974085 0.615851 -2.316439 29.773112 -0.000000 -0.000000 -0.000000 -71.645706 -7.660119 25.480837 119.979226 -12.234110 -1.108027 -12.404867 -4.960969 -2.048463 0.923350 0.000006 -0.000001 0.000000 -0.000002 -0.000000 25.097460 1.884887 -55.034403 135.646669 61.560775 21.361948 -82.354589 12.360126 -5.341358 -37.372200 -0.000024 -0.000010 0.000000 0.000001 0.000000 
19.739439 37.240547 15.945236 -40.960754 -33.317506 -20.860161 58.852721 3.045821 1.565873 10.743041 0.751146 -4.513374 17.539921 -0.072070 -4.567793 -10.622832 7.128630 2.452507 -15.539816 20.406884 10.509658 -0.000001 -0.000001 -0.000001 -37.559873 -4.786407 1.302952 -74.847972 -20.174057 -70.153570 -0.000006 -44.787067 0.000002 -122.974496 5.088426 20.616885 -1.882827 2.129409 -39.817008 2.947095 5.081737 -60.200529 0.514378 2.402400 -24.167388 0.000001 -0.000001 -0.000001 1.567996 0.456386 2.719340 19.473182 -1.474898 7.636914 -4.536180 -9.613109 1.492979 0.000002 0.000001 -0.000001 -42.143445 -9.802218 -7.640526 -53.178419 45.417968 95.901334 0.000008 102.339661 -0.000002 -37.841994 -25.129909 -25.805800 8.377129 -4.904161 11.022010 21.620195 -18.183905 -18.379214 -0.702877 -49.821203 -32.535138 0.000000 0.000000 -0.000002 -1.101404 1.407129 15.159508 1.422349 -3.352180 45.974082 0.615852 -2.316441 29.773109 -0.000000 -0.000000 -0.000000 -71.610791 -7.596707 25.564674 119.996971 -12.430604 -1.066580 -12.420591 -4.773162 -1.940632 0.923351 0.000003 0.000001 0.000000 -0.000000 -0.000000 25.223755 1.904496 -54.862897 135.707048 61.408011 21.308271 -82.557521 12.376538 -5.188610 -37.367480 0.000022 0.000006 0.000000 0.000000 0.000000 
19.725761 37.243416 15.947189 -40.951803 -33.315969 -20.852060 58.839716 3.046256 1.550023 10.743027 0.751154 -4.513380 17.535619 -0.070712 -4.567805 -10.623315 7.128363 2.451794 -15.539468 20.405608 10.513271 -0.000000 0.000000 0.000001 -37.558568 -4.795368 1.302645 -74.032188 -19.815362 -69.671850 0.000026 -47.383283 0.000034 -122.584957 4.028253 21.585793 -1.882827 2.129408 -39.817008 2.947096 5.081734 -60.200529 0.514379 2.402400 -24.167386 -0.000001 -0.000002 -0.000001 1.567995 0.456389 2.719341 19.473182 -1.474904 7.636915 -4.536183 -9.613114 1.492980 -0.000002 0.000002 -0.000000 -42.145897 -9.794652 -7.626564 -52.404807 45.326867 95.330255 0.000078 103.160261 -0.000072 -37.614279 -24.814081 -25.240754 8.377130 -4.904160 11.022010 21.620195 -18.183908 -18.379216 -0.702874 -49.821206 -32.535142 -0.000002 -0.000002 -0.000004 -1.101403 1.407129 15.159506 1.422349 -3.352179 45.974085 0.615851 -2.316439 29.773116 -0.000000 -0.000000 -0.000000 -71.597280 -7.610208 25.576904 119.997025 -12.430795 -1.064638 -12.435123 -4.795723 -1.955625 0.923344 0.000016 0.000003 0.000000 0.000002 -0.000000 25.264113 1.838723 -54.782007 135.700067 61.411044 21.308223 -82.652700 12.404761 -5.214047 -37.367477 0.000019 0.000005 0.000001 -0.000001 -0.000000 
19.718073 37.244041 15.948956 -40.936346 -33.312257 -20.837618 58.814622 3.047102 1.520846 10.743044 0.751143 -4.513381 17.520917 -0.073569 -4.566388 -10.624560 7.127688 2.454070 -15.537767 20.396015 10.533709 0.000001 -0.000000 -0.000002 -37.557387 -4.825771 1.304236 -73.290320 -19.470120 -69.176450 -0.000019 -49.470012 -0.000013 -122.231959 3.144043 22.342758 -1.882827 2.129407 -39.817004 2.947094 5.081736 -60.200536 0.514381 2.402400 -24.167386 -0.000001 0.000000 0.000001 1.567995 0.456386 2.719342 19.473180 -1.474900 7.636915 -4.536183 -9.613116 1.492979 -0.000002 0.000001 0.000001 -42.147660 -9.769428 -7.577891 -51.810813 45.272239 94.907049 0.000260 103.668352 -0.000264 -37.414055 -24.481725 -24.593404 8.377131 -4.904161 11.022010 21.620194 -18.183908 -18.379218 -0.702874 -49.821213 -32.535138 -0.000003 -0.000002 0.000001 -1.101403 1.407129 15.159509 1.422350 -3.352180 45.974085 0.615851 -2.316439 29.773112 0.000000 -0.000000 -0.000000 -71.599049 -7.626362 25.568723 119.995591 -12.398053 -1.067045 -12.439680 -4.838752 -1.982699 0.923367 0.000001 0.000002 -0.000000 -0.000001 -0.000000 25.267561 1.812284 -54.772790 135.681148 61.441431 21.321691 -82.658068 12.410063 -5.248483 -37.367480 -0.000015 -0.000003 -0.000001 -0.000001 -0.000000 
